<?xml version="1.0" encoding="utf-8"?>
<svg viewBox="0 0 100 100" fill="none" style="shape-rendering: geometricprecision;" xmlns="http://www.w3.org/2000/svg">
  <g transform="matrix(0.776624, 0, 0, 0.776373, 0.240618, 0.112851)" style="">
    <path style="opacity:1" fill="#7ac7e3" d="M 63.5,5.5 C 67.3766,5.84555 71.0433,7.01222 74.5,9C 75.3366,10.0113 75.67,11.1779 75.5,12.5C 72.3751,12.1353 69.3751,11.302 66.5,10C 64.5614,9.09216 63.5614,7.59216 63.5,5.5 Z"/>
  </g>
  <g transform="matrix(0.776624, 0, 0, 0.776373, 0.240618, 0.112851)" style="">
    <path style="opacity:1" fill="#5298c8" d="M 88.5,9.5 C 90.5449,10.9228 91.5449,12.9228 91.5,15.5C 86.5779,15.1005 82.7445,12.7672 80,8.5C 79.2195,7.05629 79.3861,5.72296 80.5,4.5C 83.5315,5.67716 86.1981,7.34383 88.5,9.5 Z"/>
  </g>
  <g transform="matrix(0.776624, 0, 0, 0.776373, 0.240618, 0.112851)" style="">
    <path style="opacity:1" fill="#74c3e0" d="M 53.5,11.5 C 51.7354,12.4614 49.7354,12.7947 47.5,12.5C 46.8592,11.5178 46.1925,10.5178 45.5,9.5C 45.8333,9.16667 46.1667,8.83333 46.5,8.5C 48.7407,8.88119 51.074,9.04786 53.5,9C 52.2264,9.97722 52.2264,10.8106 53.5,11.5 Z"/>
  </g>
  <g transform="matrix(0.776624, 0, 0, 0.776373, 0.240618, 0.112851)" style="">
    <path style="opacity:1" fill="#72c4e1" d="M 55.5,12.5 C 57.8333,12.5 60.1667,12.5 62.5,12.5C 62.9731,13.9063 63.9731,14.573 65.5,14.5C 67.4099,15.684 67.7432,17.184 66.5,19C 60.6154,20.3964 56.9487,18.2297 55.5,12.5 Z"/>
  </g>
  <g transform="matrix(0.776624, 0, 0, 0.776373, 0.240618, 0.112851)" style="">
    <path style="opacity:1" fill="#f1cd90" d="M 115.5,19.5 C 113.473,19.3379 111.473,19.5045 109.5,20C 110.381,20.7083 111.047,21.5416 111.5,22.5C 110.391,22.4431 109.391,22.1098 108.5,21.5C 107.909,20.8485 107.243,20.1818 106.5,19.5C 109.645,18.1968 112.645,18.1968 115.5,19.5 Z"/>
  </g>
  <g transform="matrix(0.776624, 0, 0, 0.776373, 0.240618, 0.112851)" style="">
    <path style="opacity:1" fill="#4b93c6" d="M 73.5,25.5 C 71.5721,23.2192 70.5721,20.5525 70.5,17.5C 75.7526,16.0903 79.9193,17.757 83,22.5C 83.5946,23.8989 83.4279,25.2322 82.5,26.5C 79.3736,27.6108 76.3736,27.2774 73.5,25.5 Z"/>
  </g>
  <g transform="matrix(0.776624, 0, 0, 0.776373, 0.240618, 0.112851)" style="">
    <path style="opacity:1" fill="#3967a2" d="M 93.5,18.5 C 99.4976,19.6797 101.831,23.1797 100.5,29C 98.5355,29.624 96.8689,29.124 95.5,27.5C 94.6198,25.5708 93.6198,23.7374 92.5,22C 92.9891,20.8615 93.3225,19.6948 93.5,18.5 Z"/>
  </g>
  <g transform="matrix(0.776624, 0, 0, 0.776373, 0.240618, 0.112851)" style="">
    <path style="opacity:1" fill="#6ec1e1" d="M 29.5,19.5 C 30.5,19.5 31.5,19.5 32.5,19.5C 32.9125,23.1834 32.0792,26.5168 30,29.5C 28.1722,30.7525 26.3388,30.7525 24.5,29.5C 24.574,25.352 26.2406,22.0187 29.5,19.5 Z"/>
  </g>
  <g transform="matrix(0.776624, 0, 0, 0.776373, 0.240618, 0.112851)" style="">
    <path style="opacity:1" fill="#4d93c2" d="M 22.5,28.5 C 21.3747,30.1288 20.0414,31.6288 18.5,33C 17.5632,33.6917 16.8966,33.525 16.5,32.5C 17.0231,29.122 18.3565,26.122 20.5,23.5C 21.7206,22.9717 22.8873,22.305 24,21.5C 24.2393,23.9595 23.7393,26.2928 22.5,28.5 Z"/>
  </g>
  <g transform="matrix(0.776624, 0, 0, 0.776373, 0.240618, 0.112851)" style="">
    <path style="opacity:1" fill="#69c2e2" d="M 67.5,22.5 C 70.9494,25.2587 71.2828,28.2587 68.5,31.5C 65.2585,32.2122 61.9251,32.2122 58.5,31.5C 55.0763,22.0029 58.0763,19.0029 67.5,22.5 Z"/>
  </g>
  <g transform="matrix(0.776624, 0, 0, 0.776373, 0.240618, 0.112851)" style="">
    <path style="opacity:1" fill="#e9b55d" d="M 115.5,19.5 C 117.749,20.0798 119.415,21.4131 120.5,23.5C 118.005,21.9101 116.005,22.4101 114.5,25C 116.509,29.5911 117.009,34.4245 116,39.5C 115.392,41.0664 114.558,42.3998 113.5,43.5C 114.308,40.0414 114.975,36.5414 115.5,33C 115.492,31.2933 115.158,29.7933 114.5,28.5C 113.877,26.2895 112.877,24.2895 111.5,22.5C 111.047,21.5416 110.381,20.7083 109.5,20C 111.473,19.5045 113.473,19.3379 115.5,19.5 Z"/>
  </g>
  <g transform="matrix(0.776624, 0, 0, 0.776373, 0.240618, 0.112851)" style="">
    <path style="opacity:1" fill="#3262a1" d="M 83.5,27.5 C 89.8369,27.1657 93.5036,30.1657 94.5,36.5C 93.2944,42.1779 90.6278,42.6779 86.5,38C 85.5665,35.4091 84.2331,33.0757 82.5,31C 82.9891,29.8615 83.3225,28.6948 83.5,27.5 Z"/>
  </g>
  <g transform="matrix(0.776624, 0, 0, 0.776373, 0.240618, 0.112851)" style="">
    <path style="opacity:1" fill="#f0c376" d="M 124.5,29.5 C 125.826,34.579 125.493,39.579 123.5,44.5C 124.053,39.518 124.387,34.518 124.5,29.5 Z"/>
  </g>
  <g transform="matrix(0.776624, 0, 0, 0.776373, 0.240618, 0.112851)" style="">
    <path style="opacity:1" fill="#4892c7" d="M 39.5,29.5 C 41.8212,36.8538 39.1545,41.1871 31.5,42.5C 27.3002,37.8684 27.6336,33.3684 32.5,29C 34.8848,28.4436 37.2181,28.6103 39.5,29.5 Z"/>
  </g>
  <g transform="matrix(0.776624, 0, 0, 0.776373, 0.240618, 0.112851)" style="">
    <path style="opacity:1" fill="#fdeeca" d="M 114.5,28.5 C 115.158,29.7933 115.492,31.2933 115.5,33C 114.975,36.5414 114.308,40.0414 113.5,43.5C 113.34,45.153 112.674,46.4863 111.5,47.5C 112.826,41.1965 113.826,34.8632 114.5,28.5 Z"/>
  </g>
  <g transform="matrix(0.776624, 0, 0, 0.776373, 0.240618, 0.112851)" style="">
    <path style="opacity:1" fill="#38659f" d="M 98.5,37.5 C 105.554,41.4607 107.221,47.1273 103.5,54.5C 99.7014,51.3076 97.7014,47.141 97.5,42C 97.7728,40.4672 98.1062,38.9672 98.5,37.5 Z"/>
  </g>
  <g transform="matrix(0.776624, 0, 0, 0.776373, 0.240618, 0.112851)" style="">
    <path style="opacity:1" fill="#4692c7" d="M 67.5,35.5 C 68.1667,37.8333 68.8333,40.1667 69.5,42.5C 68.4187,44.764 67.0854,46.9307 65.5,49C 62.0152,49.3263 58.6818,48.8263 55.5,47.5C 55.1455,44.9333 54.4788,42.4333 53.5,40C 53.7432,39.0979 54.0766,38.2646 54.5,37.5C 56.1857,35.9835 58.019,34.6502 60,33.5C 62.3187,34.8713 64.8187,35.5379 67.5,35.5 Z"/>
  </g>
  <g transform="matrix(0.776624, 0, 0, 0.776373, 0.240618, 0.112851)" style="">
    <path style="opacity:1" fill="#80cae4" d="M 20.5,23.5 C 18.3565,26.122 17.0231,29.122 16.5,32.5C 15.3501,31.1498 14.6834,31.3164 14.5,33C 16.175,38.2766 15.3417,43.11 12,47.5C 10.7496,48.5733 9.41625,48.5733 8,47.5C 6.69736,47.9783 5.53069,48.645 4.5,49.5C 4.73395,45.2314 5.90062,41.2314 8,37.5C 9.01602,36.3659 9.68268,36.6992 10,38.5C 11.6462,37.059 11.8129,35.3924 10.5,33.5C 12.2159,28.4506 15.5493,25.1172 20.5,23.5 Z"/>
  </g>
  <g transform="matrix(0.776624, 0, 0, 0.776373, 0.240618, 0.112851)" style="">
    <path style="opacity:1" fill="#6ac2e1" d="M 33.5,44.5 C 36.103,51.153 34.4363,56.153 28.5,59.5C 26.0128,59.2413 24.0128,58.2413 22.5,56.5C 21.7692,51.9594 22.7692,47.9594 25.5,44.5C 28.089,43.795 30.7557,43.795 33.5,44.5 Z"/>
  </g>
  <g transform="matrix(0.776624, 0, 0, 0.776373, 0.240618, 0.112851)" style="">
    <path style="opacity:1" fill="#74c3e0" d="M 3.5,63.5 C 3.18503,59.6286 3.51836,55.9619 4.5,52.5C 5.26501,51.3398 6.26501,50.3398 7.5,49.5C 10.2028,54.8503 10.0361,60.1836 7,65.5C 6.18405,64.1772 5.01739,63.5106 3.5,63.5 Z"/>
  </g>
  <g transform="matrix(0.776624, 0, 0, 0.776373, 0.240618, 0.112851)" style="">
    <path style="opacity:1" fill="#3665a2" d="M 95.5,54.5 C 93.8506,55.6485 92.3506,56.9818 91,58.5C 86.4415,57.6902 83.9415,55.0236 83.5,50.5C 82.3647,46.7477 83.5314,43.7477 87,41.5C 93.6967,43.1992 96.53,47.5325 95.5,54.5 Z"/>
  </g>
  <g transform="matrix(0.776624, 0, 0, 0.776373, 0.240618, 0.112851)" style="">
    <path style="opacity:1" fill="#408fc8" d="M 80.5,58.5 C 80.5,59.1667 80.1667,59.5 79.5,59.5C 77.1432,59.6633 74.8098,59.4966 72.5,59C 73.3366,57.9887 73.67,56.8221 73.5,55.5C 72.1779,55.33 71.0113,55.6634 70,56.5C 69.8253,53.8428 69.9919,51.1761 70.5,48.5C 73.8333,49.1667 77.1667,49.8333 80.5,50.5C 80.5,53.1667 80.5,55.8333 80.5,58.5 Z"/>
  </g>
  <g transform="matrix(0.776624, 0, 0, 0.776373, 0.240618, 0.112851)" style="">
    <path style="opacity:1" fill="#4a93c7" d="M 53.5,50.5 C 57.1667,51.1667 60.8333,51.8333 64.5,52.5C 67.3385,62.4787 63.6718,67.3121 53.5,67C 52.5838,66.6258 51.7504,66.1258 51,65.5C 50.089,62.6894 49.2557,59.8561 48.5,57C 50.5296,55.1049 52.1963,52.9383 53.5,50.5 Z"/>
  </g>
  <g transform="matrix(0.776624, 0, 0, 0.776373, 0.240618, 0.112851)" style="">
    <path style="opacity:1" fill="#6dc2e3" d="M 41.5,38.5 C 49.5173,37.8728 53.0173,41.5394 52,49.5C 48.2944,54.896 43.6278,55.896 38,52.5C 37.5639,50.1526 37.0639,47.8193 36.5,45.5C 37.7695,42.895 39.4361,40.5616 41.5,38.5 Z"/>
  </g>
  <g transform="matrix(0.776624, 0, 0, 0.776373, 0.240618, 0.112851)" style="">
    <path style="opacity:1" fill="#5297c7" d="M 71.5,45.5 C 77.5143,45.3362 81.181,48.0028 82.5,53.5C 82.8799,55.698 82.2132,57.3646 80.5,58.5C 80.5,55.8333 80.5,53.1667 80.5,50.5C 77.1667,49.8333 73.8333,49.1667 70.5,48.5C 69.9919,51.1761 69.8253,53.8428 70,56.5C 71.0113,55.6634 72.1779,55.33 73.5,55.5C 73.67,56.8221 73.3366,57.9887 72.5,59C 74.8098,59.4966 77.1432,59.6633 79.5,59.5C 79.2882,61.3841 78.2882,62.7174 76.5,63.5C 74.2706,62.4229 71.9372,61.7563 69.5,61.5C 68.6945,58.7146 68.0278,55.8813 67.5,53C 67.6667,51.8333 67.8333,50.6667 68,49.5C 69.3756,48.2949 70.5423,46.9616 71.5,45.5 Z"/>
  </g>
  <g transform="matrix(0.776624, 0, 0, 0.776373, 0.240618, 0.112851)" style="">
    <path style="opacity:1" fill="#3564a1" d="M 96.5,54.5 C 99.175,55.175 100.842,56.8416 101.5,59.5C 99.8805,63.1065 97.8805,66.4398 95.5,69.5C 92.7388,64.4879 93.0721,59.4879 96.5,54.5 Z"/>
  </g>
  <g transform="matrix(0.776624, 0, 0, 0.776373, 0.240618, 0.112851)" style="">
    <path style="opacity:1" fill="#4792c7" d="M 42.5,72.5 C 39.7294,72.5793 37.0627,72.0793 34.5,71C 33.4131,68.4333 32.4131,65.9333 31.5,63.5C 32.2876,60.03 34.2876,57.3633 37.5,55.5C 40.0205,56.7853 42.6872,57.4519 45.5,57.5C 46.9342,60.6984 47.4342,64.0317 47,67.5C 45.264,69.0632 43.764,70.7299 42.5,72.5 Z"/>
  </g>
  <g transform="matrix(0.776624, 0, 0, 0.776373, 0.240618, 0.112851)" style="">
    <path style="opacity:1" fill="#3061a2" d="M 89.5,60.5 C 90.4137,63.728 90.7471,67.0613 90.5,70.5C 87.8897,76.233 84.3897,76.8997 80,72.5C 78.1699,66.4873 79.8366,61.8206 85,58.5C 86.4064,59.4138 87.9064,60.0805 89.5,60.5 Z"/>
  </g>
  <g transform="matrix(0.776624, 0, 0, 0.776373, 0.240618, 0.112851)" style="">
    <path style="opacity:1" fill="#94b0d4" d="M 89.5,60.5 C 90.7773,61.6936 91.4439,63.3603 91.5,65.5C 91.4932,67.3693 91.1599,69.036 90.5,70.5C 90.7471,67.0613 90.4137,63.728 89.5,60.5 Z"/>
  </g>
  <g transform="matrix(0.776624, 0, 0, 0.776373, 0.240618, 0.112851)" style="">
    <path style="opacity:1" fill="#6ec2e1" d="M 8.5,72.5 C 7.83333,72.5 7.5,72.1667 7.5,71.5C 9.21217,61.2069 12.3788,60.8736 17,70.5C 17.7284,73.2305 17.5617,75.8971 16.5,78.5C 14.8125,79.568 13.1459,79.4014 11.5,78C 10.7709,75.9419 9.77092,74.1086 8.5,72.5 Z"/>
  </g>
  <g transform="matrix(0.776624, 0, 0, 0.776373, 0.240618, 0.112851)" style="">
    <path style="opacity:1" fill="#5094c0" d="M 7.5,71.5 C 7.5,72.1667 7.83333,72.5 8.5,72.5C 9.26312,75.1411 9.42978,77.8078 9,80.5C 8.14825,79.4293 7.31491,78.4293 6.5,77.5C 6.5,77.1667 6.5,76.8333 6.5,76.5C 5.6295,73.8877 4.96283,71.221 4.5,68.5C 4.36899,67.7611 4.53566,67.0944 5,66.5C 6.88301,67.6526 7.71634,69.3193 7.5,71.5 Z"/>
  </g>
  <g transform="matrix(0.776624, 0, 0, 0.776373, 0.240618, 0.112851)" style="">
    <path style="opacity:1" fill="#6bc2e2" d="M 26.5,61.5 C 26.8333,61.5 27.1667,61.5 27.5,61.5C 29.2742,63.8162 30.2742,66.4828 30.5,69.5C 30.4935,72.8571 28.9935,75.1905 26,76.5C 20.6646,75.4064 17.8313,72.073 17.5,66.5C 18.3914,60.9308 21.3914,59.2642 26.5,61.5 Z"/>
  </g>
  <g transform="matrix(0.776624, 0, 0, 0.776373, 0.240618, 0.112851)" style="">
    <path style="opacity:1" fill="#428fc9" d="M 19.5,49.5 C 20.0095,53.8131 19.3429,57.8131 17.5,61.5C 16.2502,61.4226 15.4169,60.756 15,59.5C 14.586,59.9574 14.086,60.2907 13.5,60.5C 12.1667,57.1667 12.1667,53.8333 13.5,50.5C 14.086,50.7093 14.586,51.0426 15,51.5C 16.049,49.8934 17.549,49.2267 19.5,49.5 Z"/>
  </g>
  <g transform="matrix(0.776624, 0, 0, 0.776373, 0.240618, 0.112851)" style="">
    <path style="opacity:1" fill="#5f9ac1" d="M 19.5,49.5 C 17.549,49.2267 16.049,49.8934 15,51.5C 14.586,51.0426 14.086,50.7093 13.5,50.5C 12.1667,53.8333 12.1667,57.1667 13.5,60.5C 14.086,60.2907 14.586,59.9574 15,59.5C 15.4169,60.756 16.2502,61.4226 17.5,61.5C 15.162,64.1391 12.9953,63.8058 11,60.5C 9.19536,54.5988 10.6954,49.9321 15.5,46.5C 16.9014,47.5207 18.2347,48.5207 19.5,49.5 Z"/>
  </g>
  <g transform="matrix(0.776624, 0, 0, 0.776373, 0.240618, 0.112851)" style="">
    <path style="opacity:1" fill="#6ac3e2" d="M 21.5,31.5 C 24.9496,31.5726 26.283,33.4059 25.5,37C 25.4174,40.937 23.7508,44.1037 20.5,46.5C 17.1765,45.841 15.8431,43.841 16.5,40.5C 16.6667,39.1667 16.8333,37.8333 17,36.5C 18.7073,34.9625 20.2073,33.2959 21.5,31.5 Z"/>
  </g>
  <g transform="matrix(0.776624, 0, 0, 0.776373, 0.240618, 0.112851)" style="">
    <path style="opacity:1" fill="#4590c8" d="M 52.5,36.5 C 49.6558,37.5511 46.6558,37.5511 43.5,36.5C 43.3713,34.7839 43.038,33.1172 42.5,31.5C 42.0807,28.6755 43.0807,26.5088 45.5,25C 51.5562,23.7444 55.2229,26.0777 56.5,32C 54.9818,33.3506 53.6485,34.8506 52.5,36.5 Z"/>
  </g>
  <g transform="matrix(0.776624, 0, 0, 0.776373, 0.240618, 0.112851)" style="">
    <path style="opacity:1" fill="#4b92c6" d="M 43.5,17.5 C 45.6116,25.0129 42.6116,28.0129 34.5,26.5C 34.298,24.0504 34.6314,21.717 35.5,19.5C 37.8201,17.7739 40.4867,17.1072 43.5,17.5 Z"/>
  </g>
  <g transform="matrix(0.776624, 0, 0, 0.776373, 0.240618, 0.112851)" style="">
    <path style="opacity:1" fill="#6dc1e3" d="M 47.5,14.5 C 53.3365,13.5179 56.1698,15.8513 56,21.5C 53.2628,22.6105 50.4294,22.7772 47.5,22C 44.9009,19.4213 44.9009,16.9213 47.5,14.5 Z"/>
  </g>
  <g transform="matrix(0.776624, 0, 0, 0.776373, 0.240618, 0.112851)" style="">
    <path style="opacity:1" fill="#4891c7" d="M 60.5,76.5 C 58.6908,82.9885 54.3574,85.3218 47.5,83.5C 46.8031,80.5768 45.8031,77.7435 44.5,75C 47.3498,68.3827 52.0164,66.716 58.5,70C 59.3972,72.0871 60.0639,74.2537 60.5,76.5 Z"/>
  </g>
  <g transform="matrix(0.776624, 0, 0, 0.776373, 0.240618, 0.112851)" style="">
    <path style="opacity:1" fill="#4992c8" d="M 72.5,79.5 C 70.8333,79.5 69.1667,79.5 67.5,79.5C 66.6016,78.8423 65.6016,78.1757 64.5,77.5C 63.771,75.0238 63.1043,72.5238 62.5,70C 63.7763,67.7194 65.4429,65.7194 67.5,64C 75.7971,62.7343 78.9638,66.2343 77,74.5C 75.2927,76.0375 73.7927,77.7041 72.5,79.5 Z"/>
  </g>
  <g transform="matrix(0.776624, 0, 0, 0.776373, 0.240618, 0.112851)" style="">
    <path style="opacity:1" fill="#8fa6bc" d="M 92.5,72.5 C 90.8333,74.5 89.1667,76.5 87.5,78.5C 86.475,78.1034 86.3083,77.4368 87,76.5C 88.6667,74.8333 90.3333,73.1667 92,71.5C 92.3988,71.7284 92.5654,72.0618 92.5,72.5 Z"/>
  </g>
  <g transform="matrix(0.776624, 0, 0, 0.776373, 0.240618, 0.112851)" style="">
    <path style="opacity:1" fill="#3764a2" d="M 81.5,84.5 C 79.8333,85.5 78.5,86.8333 77.5,88.5C 76.1667,88.5 74.8333,88.5 73.5,88.5C 72.1085,82.5575 74.1085,78.2242 79.5,75.5C 85.311,77.4376 85.9777,80.4376 81.5,84.5 Z"/>
  </g>
  <g transform="matrix(0.776624, 0, 0, 0.776373, 0.240618, 0.112851)" style="">
    <path style="opacity:1" fill="#4691c8" d="M 41.5,75.5 C 42.6948,77.7513 43.6948,80.0846 44.5,82.5C 44.1412,84.371 43.1412,85.871 41.5,87C 38.8333,87.6667 36.1667,87.6667 33.5,87C 29.1552,82.7546 28.8219,78.4213 32.5,74C 35.5019,74.1584 38.5019,74.6584 41.5,75.5 Z"/>
  </g>
  <g transform="matrix(0.776624, 0, 0, 0.776373, 0.240618, 0.112851)" style="">
    <path style="opacity:1" fill="#4b92c6" d="M 19.5,77.5 C 27.7564,78.6859 31.0897,83.3526 29.5,91.5C 24.0856,91.9798 20.5856,89.6465 19,84.5C 18.2967,82.0709 18.4634,79.7375 19.5,77.5 Z"/>
  </g>
  <g transform="matrix(0.776624, 0, 0, 0.776373, 0.240618, 0.112851)" style="">
    <path style="opacity:1" fill="#3062a2" d="M 71.5,82.5 C 71.5,84.8333 71.5,87.1667 71.5,89.5C 65.1374,95.5254 60.4707,94.3588 57.5,86C 61.0072,80.1985 65.6739,79.0319 71.5,82.5 Z"/>
  </g>
  <g transform="matrix(0.776624, 0, 0, 0.776373, 0.240618, 0.112851)" style="">
    <path style="opacity:1" fill="#96c5e3" d="M 12.5,80.5 C 11.3871,81.9464 11.2204,83.6131 12,85.5C 13.6665,87.9957 15.4998,90.329 17.5,92.5C 14.1886,91.1886 11.8552,88.8553 10.5,85.5C 10.2011,83.396 10.5344,81.396 11.5,79.5C 12.1067,79.6236 12.44,79.9569 12.5,80.5 Z"/>
  </g>
  <g transform="matrix(0.776624, 0, 0, 0.776373, 0.240618, 0.112851)" style="">
    <path style="opacity:1" fill="#4992c4" d="M 12.5,80.5 C 17.5846,83.3351 20.0846,87.6685 20,93.5C 19.3292,92.7476 18.4959,92.4142 17.5,92.5C 15.4998,90.329 13.6665,87.9957 12,85.5C 11.2204,83.6131 11.3871,81.9464 12.5,80.5 Z"/>
  </g>
  <g transform="matrix(0.776624, 0, 0, 0.776373, 0.240618, 0.112851)" style="">
    <path style="opacity:1" fill="#4690c6" d="M 43.5,99.5 C 39.9882,99.0764 36.6548,98.0764 33.5,96.5C 30.0241,90.1346 31.8575,88.1346 39,90.5C 43.2126,92.2577 44.7126,95.2577 43.5,99.5 Z"/>
  </g>
  <g transform="matrix(0.776624, 0, 0, 0.776373, 0.240618, 0.112851)" style="">
    <path style="opacity:1" fill="#4892c7" d="M 54.5,96.5 C 52.2362,95.7814 49.9029,95.448 47.5,95.5C 42.0791,91.5913 42.2458,87.9246 48,84.5C 50.3366,85.8076 52.8366,86.8076 55.5,87.5C 58.5086,91.0449 58.1752,94.0449 54.5,96.5 Z"/>
  </g>
  <g transform="matrix(0.776624, 0, 0, 0.776373, 0.240618, 0.112851)" style="">
    <path style="opacity:1" fill="#658db6" d="M 23.5,92.5 C 23.3433,93.8734 23.51,95.2068 24,96.5C 26.3284,97.6635 28.1618,99.3302 29.5,101.5C 29.4827,103.028 28.816,103.528 27.5,103C 24,100.666 21,97.8325 18.5,94.5C 19.5832,94.5394 20.5832,94.8728 21.5,95.5C 22.1757,94.3984 22.8423,93.3984 23.5,92.5 Z"/>
  </g>
  <g transform="matrix(0.776624, 0, 0, 0.776373, 0.240618, 0.112851)" style="">
    <path style="opacity:1" fill="#3c69a1" d="M 65.5,97.5 C 63.1475,98.3403 61.1475,99.6736 59.5,101.5C 58.5041,101.586 57.6708,101.252 57,100.5C 56.3723,95.2989 58.539,93.6322 63.5,95.5C 64.7133,95.7472 65.38,96.4138 65.5,97.5 Z"/>
  </g>
  <g transform="matrix(0.776624, 0, 0, 0.776373, 0.240618, 0.112851)" style="">
    <path style="opacity:1" fill="#3163a2" d="M 23.5,92.5 C 26.8683,92.6548 29.535,93.9881 31.5,96.5C 33.69,97.3745 34.69,99.0411 34.5,101.5C 33.5,101.5 32.5,101.5 31.5,101.5C 30.8333,101.5 30.1667,101.5 29.5,101.5C 28.1618,99.3302 26.3284,97.6635 24,96.5C 23.51,95.2068 23.3433,93.8734 23.5,92.5 Z"/>
  </g>
  <g transform="matrix(0.776624, 0, 0, 0.776373, 0.240618, 0.112851)" style="">
    <path style="opacity:1" fill="#eeaf46" d="M 120.5,23.5 C 122.822,24.8021 124.155,26.8021 124.5,29.5C 124.387,34.518 124.053,39.518 123.5,44.5C 122.369,50.0597 120.536,55.393 118,60.5C 110.203,71.9989 101.703,82.9989 92.5,93.5C 87.0819,98.0555 81.4152,102.389 75.5,106.5C 74.448,106.649 73.448,106.483 72.5,106C 71.6364,104.303 70.3031,103.137 68.5,102.5C 67.6143,101.675 67.281,100.675 67.5,99.5C 69.46,98.8617 71.2933,98.8617 73,99.5C 76.063,98.3248 76.2296,96.9914 73.5,95.5C 77.4458,92.2209 81.1125,88.5542 84.5,84.5C 85.8333,83.8333 86.8333,82.8333 87.5,81.5C 97.9577,71.9239 105.958,60.5905 111.5,47.5C 112.674,46.4863 113.34,45.153 113.5,43.5C 114.558,42.3998 115.392,41.0664 116,39.5C 117.009,34.4245 116.509,29.5911 114.5,25C 116.005,22.4101 118.005,21.9101 120.5,23.5 Z"/>
  </g>
  <g transform="matrix(0.776624, 0, 0, 0.776373, 0.240618, 0.112851)" style="">
    <path style="opacity:1" fill="#30619f" d="M 47.5,98.5 C 49.861,98.6741 52.1944,99.0074 54.5,99.5C 55.7345,101.398 55.4011,103.065 53.5,104.5C 49.4231,104.983 47.0897,103.316 46.5,99.5C 46.5,98.8333 46.8333,98.5 47.5,98.5 Z"/>
  </g>
  <g transform="matrix(0.776624, 0, 0, 0.776373, 0.240618, 0.112851)" style="">
    <path style="opacity:1" fill="#efb558" d="M 73.5,95.5 C 76.2296,96.9914 76.063,98.3248 73,99.5C 71.2933,98.8617 69.46,98.8617 67.5,99.5C 67.281,100.675 67.6143,101.675 68.5,102.5C 70.3031,103.137 71.6364,104.303 72.5,106C 73.448,106.483 74.448,106.649 75.5,106.5C 75.5,106.833 75.5,107.167 75.5,107.5C 73.1667,108.833 70.8333,110.167 68.5,111.5C 69.1667,109.5 69.8333,107.5 70.5,105.5C 67.9009,105.451 65.7342,104.451 64,102.5C 61.3227,104.511 58.9894,106.844 57,109.5C 56.4387,108.978 55.772,108.645 55,108.5C 52.7903,110.111 50.2903,110.778 47.5,110.5C 56.1416,105.54 64.8083,100.54 73.5,95.5 Z"/>
  </g>
  <g transform="matrix(0.776624, 0, 0, 0.776373, 0.240618, 0.112851)" style="">
    <path style="opacity:1" fill="#2e62a1" d="M 37.5,101.5 C 39.861,101.674 42.1944,102.007 44.5,102.5C 45.6602,103.265 46.6602,104.265 47.5,105.5C 46.8333,105.833 46.1667,106.167 45.5,106.5C 42.3658,107.444 39.0324,107.444 35.5,106.5C 35.3893,105.883 35.056,105.383 34.5,105C 36.3126,105.046 37.9793,104.88 39.5,104.5C 39.0431,103.702 38.3764,103.369 37.5,103.5C 37.5,102.833 37.5,102.167 37.5,101.5 Z"/>
  </g>
  <g transform="matrix(0.776624, 0, 0, 0.776373, 0.240618, 0.112851)" style="">
    <path style="opacity:1" fill="#eeb960" d="M 47.5,111.5 C 47.4226,112.75 46.756,113.583 45.5,114C 36.5077,115.538 27.5077,115.704 18.5,114.5C 18.5,115.833 18.5,117.167 18.5,118.5C 17.8485,117.909 17.1818,117.243 16.5,116.5C 15.3384,111.869 15.1717,107.202 16,102.5C 17.2993,106.808 19.7993,110.308 23.5,113C 31.5944,113.684 39.5944,113.184 47.5,111.5 Z"/>
  </g>
  <g transform="matrix(0.776624, 0, 0, 0.776373, 0.240618, 0.112851)" style="">
    <path style="opacity:1" fill="#eeae42" d="M 68.5,111.5 C 66.4489,112.487 64.7822,113.82 63.5,115.5C 59.5727,116.804 55.906,118.47 52.5,120.5C 45.288,120.811 38.4547,122.144 32,124.5C 29.0746,124.477 26.2413,123.977 23.5,123C 22.2107,121.198 20.5441,120.031 18.5,119.5C 18.5,119.167 18.5,118.833 18.5,118.5C 18.5,117.167 18.5,115.833 18.5,114.5C 27.5077,115.704 36.5077,115.538 45.5,114C 46.756,113.583 47.4226,112.75 47.5,111.5C 47.5,111.167 47.5,110.833 47.5,110.5C 50.2903,110.778 52.7903,110.111 55,108.5C 55.772,108.645 56.4387,108.978 57,109.5C 58.9894,106.844 61.3227,104.511 64,102.5C 65.7342,104.451 67.9009,105.451 70.5,105.5C 69.8333,107.5 69.1667,109.5 68.5,111.5 Z"/>
  </g>
  <g transform="matrix(0.776624, 0, 0, 0.776373, 0.240618, 0.112851)" style="">
    <path style="opacity:1" fill="#f7d59d" d="M 63.5,115.5 C 60.5042,118.461 56.8376,120.128 52.5,120.5C 55.906,118.47 59.5727,116.804 63.5,115.5 Z"/>
  </g>
  <g transform="matrix(0.776624, 0, 0, 0.776373, 0.240618, 0.112851)" style="">
    <path style="opacity:1" fill="#f0c172" d="M 18.5,119.5 C 20.5441,120.031 22.2107,121.198 23.5,123C 26.2413,123.977 29.0746,124.477 32,124.5C 38.4547,122.144 45.288,120.811 52.5,120.5C 51.5707,121.315 50.5707,122.148 49.5,123C 43.7433,124.398 37.9099,125.231 32,125.5C 26.036,126.598 21.536,124.598 18.5,119.5 Z"/>
  </g>
</svg>